<svg width="18" height="18" viewBox="0 0 18 18" fill="none" xmlns="http://www.w3.org/2000/svg">
<path d="M8.83686 13.8273C8.18232 13.8273 7.60959 13.3364 7.69141 12.6818C7.69141 12.0273 8.18232 11.5364 8.83686 11.5364C9.49141 11.5364 9.98232 12.0273 9.98232 12.6818C9.98232 13.3364 9.49141 13.8273 8.83686 13.8273Z" fill="#455A64"/>
<path d="M11.6997 8.18182C11.4543 8.50909 11.127 8.75455 10.7179 9L10.227 9.32728C9.98153 9.49091 9.8179 9.65455 9.73608 9.9C9.65426 10.0636 9.65426 10.2273 9.65426 10.3909V10.4727H7.77244V10.3091C7.77244 9.65455 7.77244 9.32728 8.09972 9C8.50881 8.59091 8.99972 8.18182 9.49063 7.93637C9.65426 7.85455 9.73608 7.77273 9.8179 7.60909C9.98153 7.44546 10.0634 7.2 10.0634 6.95455C10.0634 6.70909 9.98153 6.38182 9.8179 6.13637C9.65426 5.89091 9.32699 5.80909 8.9179 5.80909C8.59062 5.80909 8.18153 5.97273 8.0179 6.21818C7.85426 6.46364 7.77244 6.79091 7.77244 7.11818V7.2H5.89062V7.11818C5.97244 5.97273 6.38153 5.07273 7.1179 4.58182C7.69062 4.25455 8.26335 4.09091 8.9179 4.09091C9.73608 4.09091 10.5543 4.25455 11.2088 4.74546C11.8634 5.23637 12.1906 5.97273 12.1088 6.70909C12.1088 7.36364 11.9452 7.77273 11.6997 8.18182Z" fill="#455A64"/>
<path d="M17 9C17 13.4183 13.4183 17 9 17C4.58172 17 1 13.4183 1 9C1 4.58172 4.58172 1 9 1C13.4183 1 17 4.58172 17 9Z" stroke="#455A64" stroke-width="2" stroke-miterlimit="10"/>
</svg>
