<svg width="175" height="30" viewBox="0 0 175 30" fill="none" xmlns="http://www.w3.org/2000/svg">
<rect x="0.5" y="0.5" width="174" height="29" rx="1.5" fill="white" stroke="#ECEFF1"/>
<path d="M23.8586 9.21479L19.0817 20.8191H15.9656L13.6105 11.5549C13.466 10.984 13.3438 10.7748 12.9106 10.5374C12.1996 10.1418 11.0276 9.77438 10 9.54828L10.0722 9.20914H15.0935C15.7323 9.20914 16.31 9.64437 16.4544 10.3905L17.6986 17.1055L20.7703 9.20914H23.8586V9.21479ZM36.0786 17.0264C36.0897 13.9628 31.9183 13.7932 31.946 12.4253C31.9572 12.0071 32.346 11.5662 33.1958 11.4531C33.618 11.3966 34.7844 11.3514 36.1064 11.9732L36.623 9.51437C35.912 9.25436 35.0011 9 33.8624 9C30.9462 9 28.8966 10.577 28.8799 12.838C28.8577 14.5111 30.3463 15.4381 31.4628 15.9976C32.6126 16.5685 32.9959 16.9303 32.9903 17.439C32.9792 18.219 32.0738 18.5638 31.224 18.5751C29.7409 18.5977 28.8799 18.1682 28.1967 17.8403L27.6635 20.3839C28.3522 20.7061 29.6242 20.9887 30.9462 21C34.0401 20.9943 36.0675 19.4399 36.0786 17.0264ZM43.7772 20.8135H46.5045L44.1216 9.21479H41.6054C41.0389 9.21479 40.5612 9.54828 40.3501 10.0683L35.9231 20.8135H39.017L39.6336 19.0782H43.4162L43.7772 20.8135ZM40.4834 16.7042L42.0387 12.3462L42.933 16.7042H40.4834ZM28.0745 9.21479L25.6361 20.8135H22.6866L25.1251 9.20914H28.0745V9.21479Z" fill="url(#paint0_linear)"/>
<path d="M80.4623 15C80.4623 18.8663 77.3523 22 73.515 22C69.6776 22 66.5703 18.8637 66.5703 15C66.5703 11.1363 69.6803 8 73.5176 8C77.355 8 80.4623 11.1337 80.4623 15Z" fill="#F59D1A"/>
<path d="M71.8946 15C71.8946 18.8663 68.7846 22 64.9473 22C61.1099 22 58 18.8637 58 15C58 11.1363 61.1099 8 64.9473 8C68.7846 8 71.8946 11.1337 71.8946 15Z" fill="#E7001B"/>
<path d="M69.2322 9.48914C67.6114 10.77 66.5703 12.7625 66.5703 14.9974C66.5703 17.2324 67.6114 19.2275 69.2322 20.5083C70.8531 19.2275 71.8941 17.235 71.8941 14.9974C71.8941 12.7598 70.8531 10.77 69.2322 9.48914Z" fill="#FC5F01"/>
<path d="M113.462 15C113.462 18.8663 110.352 22 106.515 22C102.678 22 99.5703 18.8637 99.5703 15C99.5703 11.1363 102.68 8 106.518 8C110.355 8 113.462 11.1337 113.462 15Z" fill="#0099DF"/>
<path d="M104.895 15C104.895 18.8663 101.785 22 97.9473 22C94.1099 22 91 18.8637 91 15C91 11.1363 94.1099 8 97.9473 8C101.785 8 104.895 11.1337 104.895 15Z" fill="#D32011"/>
<path d="M102.232 9.48914C100.611 10.77 99.5703 12.7625 99.5703 14.9974C99.5703 17.2324 100.611 19.2275 102.232 20.5083C103.853 19.2275 104.894 17.235 104.894 14.9974C104.894 12.7598 103.853 10.77 102.232 9.48914Z" fill="#6C6BBD"/>
<path d="M146.548 10.2913L143.888 16.0853H143.618L143.602 9.03685L139.806 9.04502L139.83 20.9722L143.05 20.964C143.896 20.964 144.664 20.4696 145.015 19.7014L147.675 13.9074H147.945L147.961 20.9559L151.757 20.9477L151.733 9.02051L148.513 9.02868C147.667 9.02868 146.903 9.52309 146.548 10.2913Z" fill="#24A84D"/>
<path d="M132.312 10.6256L130.743 16.109H130.473L128.88 10.6296C128.61 9.70212 127.76 9.0647 126.792 9.0647L123 9.07286L123.025 21L126.82 20.9919L126.804 13.9434H127.078L129.26 20.9878L131.973 20.9837L134.126 13.9312H134.396L134.412 20.9796L138.208 20.9714L138.184 9.04427L134.392 9.05243C133.424 9.05652 132.578 9.69803 132.312 10.6256Z" fill="#24A84D"/>
<path d="M153.375 14.4388L153.387 20.9438L157.175 20.9356L157.167 17.1397L161.241 17.1315C163.01 17.1274 164.509 15.9915 165.065 14.4143L153.375 14.4388Z" fill="#24A84D"/>
<path d="M161.224 9.00001L152.819 9.01635C153.334 11.7908 155.769 13.891 158.691 13.8828L165.216 13.8706C165.27 13.6091 165.298 13.3353 165.294 13.0575C165.294 10.8101 163.472 8.99592 161.224 9.00001Z" fill="url(#paint1_linear)"/>
<defs>
<linearGradient id="paint0_linear" x1="10" y1="14.9985" x2="46.5045" y2="14.9985" gradientUnits="userSpaceOnUse">
<stop stop-color="#241E5C"/>
<stop offset="1" stop-color="#004D9F"/>
</linearGradient>
<linearGradient id="paint1_linear" x1="152.825" y1="11.457" x2="165.296" y2="11.4311" gradientUnits="userSpaceOnUse">
<stop offset="0.00985222" stop-color="#0FA5E1"/>
<stop offset="0.349" stop-color="#0C9CDA"/>
<stop offset="0.9076" stop-color="#0483C6"/>
<stop offset="1" stop-color="#037EC2"/>
</linearGradient>
</defs>
</svg>
