<svg width="30" height="30" viewBox="0 0 30 30" fill="none" xmlns="http://www.w3.org/2000/svg">
<rect x="0.5" y="0.5" width="29" height="29" rx="1.5" fill="white" stroke="#ECEFF1"/>
<g clip-path="url(#clip0)">
<path d="M8 13.932C8 12.9223 8.08414 12.2816 10.1812 10.7152C11.9094 9.42071 17.4693 5 17.4693 5V12.3786H21.6958V23H9.32039C8.59547 23 8 22.4045 8 21.6796V13.932Z" fill="#FFD000"/>
<path d="M17.4691 12.3786V16.6569L9.70215 21.945L19.5209 18.754V12.3786H17.4691Z" fill="#D8B100"/>
<path d="M13.9154 12.1586C14.3685 11.6149 15.0352 11.4272 15.3976 11.7314C15.7601 12.0356 15.6889 12.7217 15.2358 13.2654C14.7827 13.809 14.1161 13.9967 13.7536 13.6925C13.3911 13.3883 13.4623 12.7023 13.9154 12.1586Z" fill="black"/>
</g>
<defs>
<clipPath id="clip0">
<rect width="13.6893" height="18" fill="white" transform="translate(8 5)"/>
</clipPath>
</defs>
</svg>
