<svg width="30" height="20" viewBox="0 0 30 20" fill="none" xmlns="http://www.w3.org/2000/svg">
<rect width="30" height="20" fill="#00B4C8"/>
<rect x="3" width="3" height="20" fill="#FFCA00"/>
<g clip-path="url(#clip0)">
<path d="M19.1367 4.28898C19.4346 4.34385 19.5874 4.17923 19.6305 3.95581C19.6893 3.65792 19.5639 2.15277 19.5639 2.15277C19.5639 2.15277 18.8701 3.49329 18.8113 3.7951C18.7643 4.01852 18.8388 4.23018 19.1367 4.28898Z" fill="#FFCA00"/>
<path d="M20.2263 4.62223C20.5085 4.7359 20.6888 4.60263 20.7751 4.39097C20.8927 4.10876 21.0612 2.61145 21.0612 2.61145C21.0612 2.61145 20.1205 3.79126 20.0029 4.07348C19.9167 4.28122 19.948 4.50464 20.2263 4.62223Z" fill="#FFCA00"/>
<path d="M21.2338 5.15927C21.4886 5.32389 21.6924 5.22982 21.8178 5.04168C21.9864 4.7869 22.445 3.34839 22.445 3.34839C22.445 3.34839 21.2887 4.32046 21.1201 4.57524C20.9947 4.76338 20.9829 4.99072 21.2338 5.15927Z" fill="#FFCA00"/>
<path d="M22.1156 5.88435C22.3351 6.09602 22.5507 6.04114 22.7114 5.88043C22.927 5.66485 23.656 4.34393 23.656 4.34393C23.656 4.34393 22.3351 5.07299 22.1195 5.28857C21.9588 5.44927 21.9039 5.66877 22.1156 5.88435Z" fill="#FFCA00"/>
<path d="M22.8405 6.76641C23.013 7.01727 23.2364 7.00551 23.4246 6.88008C23.6793 6.71153 24.6514 5.55524 24.6514 5.55524C24.6514 5.55524 23.2129 6.01384 22.9581 6.18238C22.77 6.31173 22.672 6.51163 22.8405 6.76641Z" fill="#FFCA00"/>
<path d="M23.3775 7.76969C23.499 8.04798 23.7185 8.08326 23.9302 7.99702C24.2124 7.87944 25.3922 6.93872 25.3922 6.93872C25.3922 6.93872 23.891 7.10727 23.6088 7.22485C23.3971 7.31109 23.2639 7.49139 23.3775 7.76969Z" fill="#FFCA00"/>
<path d="M24.0442 8.36939C23.8208 8.4125 23.6522 8.56537 23.711 8.86326C23.7737 9.16116 23.9854 9.23563 24.2088 9.19252C24.5067 9.13372 25.8472 8.43994 25.8472 8.43994C25.8472 8.43994 24.3421 8.31059 24.0442 8.36939Z" fill="#FFCA00"/>
<path d="M23.8247 10.0001C23.8286 10.3058 24.0207 10.4195 24.248 10.4195C24.5538 10.4195 26.004 10.0001 26.004 10.0001C26.004 10.0001 24.5538 9.58069 24.248 9.58069C24.0168 9.58069 23.8247 9.69436 23.8247 10.0001Z" fill="#FFCA00"/>
<path d="M25.847 11.5599C25.847 11.5599 24.5065 10.8662 24.2086 10.8074C23.9852 10.7642 23.7696 10.8387 23.7108 11.1366C23.6559 11.4345 23.8206 11.5834 24.044 11.6305C24.3419 11.6893 25.847 11.5599 25.847 11.5599Z" fill="#FFCA00"/>
<path d="M23.3775 12.2264C23.2639 12.5087 23.3971 12.689 23.6088 12.7752C23.891 12.8928 25.3922 13.0613 25.3922 13.0613C25.3922 13.0613 24.2124 12.1167 23.9302 12.003C23.7185 11.9168 23.4951 11.9481 23.3775 12.2264Z" fill="#FFCA00"/>
<path d="M22.8408 13.2336C22.6761 13.4884 22.7702 13.6883 22.9583 13.8176C23.2131 13.9862 24.6516 14.4448 24.6516 14.4448C24.6516 14.4448 23.6796 13.2924 23.4248 13.1199C23.2366 12.9945 23.0093 12.9827 22.8408 13.2336Z" fill="#FFCA00"/>
<path d="M22.7113 14.1194C22.5506 13.9587 22.3311 13.8999 22.1155 14.1155C21.9038 14.335 21.9548 14.5506 22.1194 14.7113C22.335 14.9269 23.6559 15.6559 23.6559 15.6559C23.6559 15.6559 22.9268 14.335 22.7113 14.1194Z" fill="#FFCA00"/>
<path d="M22.445 16.6516C22.445 16.6516 21.9864 15.2131 21.8178 14.9583C21.6924 14.7701 21.4886 14.6682 21.2338 14.8407C20.9829 15.0131 20.9947 15.2366 21.1201 15.4247C21.2926 15.6795 22.445 16.6516 22.445 16.6516Z" fill="#FFCA00"/>
<path d="M20.2266 15.3778C19.9483 15.4993 19.913 15.7188 20.0032 15.9265C20.1208 16.2087 21.0615 17.3885 21.0615 17.3885C21.0615 17.3885 20.8929 15.8873 20.7753 15.609C20.6891 15.3974 20.5088 15.2641 20.2266 15.3778Z" fill="#FFCA00"/>
<path d="M14.88 15.4248C15.0054 15.2366 15.0211 15.0093 14.7663 14.8408C14.5116 14.6761 14.3077 14.7702 14.1823 14.9583C14.0138 15.2131 13.5552 16.6516 13.5552 16.6516C13.5552 16.6516 14.7115 15.6796 14.88 15.4248Z" fill="#FFCA00"/>
<path d="M13.8842 14.1155C13.6647 13.9039 13.4491 13.9548 13.2884 14.1195C13.0728 14.335 12.3438 15.656 12.3438 15.656C12.3438 15.656 13.6647 14.9269 13.8803 14.7113C14.041 14.5506 14.0998 14.3311 13.8842 14.1155Z" fill="#FFCA00"/>
<path d="M13.1595 13.2336C12.987 12.9827 12.7675 12.9945 12.5755 13.1199C12.3207 13.2885 11.3486 14.4448 11.3486 14.4448C11.3486 14.4448 12.7871 13.9862 13.0419 13.8176C13.2301 13.6922 13.3281 13.4884 13.1595 13.2336Z" fill="#FFCA00"/>
<path d="M12.6221 12.2263C12.5006 11.9441 12.2811 11.9128 12.0734 12.0029C11.7911 12.1205 10.6113 13.0612 10.6113 13.0612C10.6113 13.0612 12.1126 12.8927 12.3948 12.7751C12.6025 12.6889 12.7397 12.5086 12.6221 12.2263Z" fill="#FFCA00"/>
<path d="M12.2891 11.1366C12.2263 10.8387 12.0147 10.7642 11.7913 10.8074C11.4934 10.8662 10.1489 11.5599 10.1489 11.5599C10.1489 11.5599 11.6541 11.6854 11.952 11.6266C12.1832 11.5834 12.3478 11.4345 12.2891 11.1366Z" fill="#FFCA00"/>
<path d="M12.1793 10.0001C12.1754 9.69436 11.9873 9.58069 11.756 9.58069C11.4503 9.58069 10 10.0001 10 10.0001C10 10.0001 11.4503 10.4195 11.756 10.4195C11.9833 10.4195 12.1793 10.3058 12.1793 10.0001Z" fill="#FFCA00"/>
<path d="M12.289 8.86332C12.3439 8.56543 12.1793 8.41256 11.9559 8.36945C11.658 8.31065 10.1528 8.43608 10.1528 8.43608C10.1528 8.43608 11.4934 9.12986 11.7952 9.18865C12.0186 9.23569 12.2302 9.16513 12.289 8.86332Z" fill="#FFCA00"/>
<path d="M12.6221 7.76982C12.7358 7.48761 12.6025 7.3073 12.3909 7.22107C12.1086 7.10348 10.6074 6.93494 10.6074 6.93494C10.6074 6.93494 11.7872 7.87565 12.0695 7.99324C12.2811 8.08339 12.5045 8.05204 12.6221 7.76982Z" fill="#FFCA00"/>
<path d="M12.5755 6.88008C12.7675 7.00943 12.991 7.02119 13.1595 6.76641C13.3241 6.51163 13.2301 6.31173 13.0419 6.18238C12.7871 6.01384 11.3486 5.55524 11.3486 5.55524C11.3486 5.55524 12.3207 6.71153 12.5755 6.88008Z" fill="#FFCA00"/>
<path d="M13.8842 5.88435C14.0958 5.66485 14.041 5.44927 13.8803 5.28857C13.6647 5.07299 12.3438 4.34393 12.3438 4.34393C12.3438 4.34393 13.0728 5.66485 13.2884 5.88043C13.4491 6.04114 13.6686 6.09993 13.8842 5.88435Z" fill="#FFCA00"/>
<path d="M23.119 10.0078C23.119 7.17777 20.8221 4.88086 17.9921 4.88086C15.1621 4.88086 12.8652 7.17385 12.8652 10.0078C12.8652 12.8377 15.1621 15.1347 17.9921 15.1347C20.826 15.1307 23.119 12.8377 23.119 10.0078Z" fill="#FFCA00"/>
<path d="M18 4.17932C18.3057 4.1754 18.4194 3.98334 18.4194 3.756C18.4194 3.45027 18 2 18 2C18 2 17.5806 3.45027 17.5806 3.756C17.5806 3.98334 17.6942 4.17932 18 4.17932Z" fill="#FFCA00"/>
<path d="M19.1364 15.711C18.8385 15.7737 18.7641 15.9815 18.8072 16.2049C18.866 16.5028 19.5597 17.8472 19.5597 17.8472C19.5597 17.8472 19.6891 16.3421 19.6264 16.0442C19.5833 15.8169 19.4343 15.6522 19.1364 15.711Z" fill="#FFCA00"/>
<path d="M18.4194 16.2441C18.4194 16.0168 18.3057 15.8208 18 15.8208C17.6942 15.8247 17.5806 16.0168 17.5806 16.2441C17.5806 16.5499 18 18.0001 18 18.0001C18 18.0001 18.4194 16.5499 18.4194 16.2441Z" fill="#FFCA00"/>
<path d="M16.3731 16.0442C16.3143 16.3421 16.4397 17.8472 16.4397 17.8472C16.4397 17.8472 17.1335 16.5067 17.1923 16.2049C17.2354 15.9815 17.1649 15.7698 16.8631 15.711C16.5652 15.6522 16.4162 15.8169 16.3731 16.0442Z" fill="#FFCA00"/>
<path d="M15.7734 15.3778C15.4911 15.2641 15.3108 15.3974 15.2246 15.609C15.107 15.8912 14.9385 17.3885 14.9385 17.3885C14.9385 17.3885 15.8792 16.2087 15.9968 15.9265C16.0869 15.7188 16.0556 15.4954 15.7734 15.3778Z" fill="#FFCA00"/>
<path d="M14.7663 5.15927C15.0172 4.9868 15.0054 4.76338 14.88 4.57524C14.7115 4.32046 13.5552 3.34839 13.5552 3.34839C13.5552 3.34839 14.0138 4.7869 14.1823 5.04168C14.3077 5.22982 14.5116 5.32781 14.7663 5.15927Z" fill="#FFCA00"/>
<path d="M15.7738 4.62223C16.0521 4.50072 16.0874 4.28122 16.0012 4.07348C15.8836 3.79126 14.9429 2.61145 14.9429 2.61145C14.9429 2.61145 15.1114 4.11268 15.229 4.39097C15.3113 4.60263 15.4916 4.7359 15.7738 4.62223Z" fill="#FFCA00"/>
<path d="M16.8631 4.28918C17.161 4.22646 17.2354 4.0148 17.1923 3.79138C17.1335 3.49349 16.4398 2.14905 16.4398 2.14905C16.4398 2.14905 16.3104 3.65419 16.3731 3.95209C16.4162 4.18334 16.5652 4.34797 16.8631 4.28918Z" fill="#FFCA00"/>
</g>
<defs>
<clipPath id="clip0">
<rect width="16" height="16" fill="white" transform="translate(10 2)"/>
</clipPath>
</defs>
</svg>
