<svg width="30" height="30" viewBox="0 0 30 30" fill="none" xmlns="http://www.w3.org/2000/svg">
<rect x="0.5" y="0.5" width="29" height="29" rx="1.5" fill="white" stroke="#ECEFF1"/>
<path d="M20.2985 18.0996C20.345 18.4486 20.2403 18.5999 20.124 18.5999C20.0076 18.5999 19.8447 18.4602 19.6702 18.181C19.4957 17.9018 19.4259 17.5877 19.519 17.4248C19.5771 17.3201 19.6935 17.2736 19.8564 17.3317C20.1472 17.4364 20.2636 17.8902 20.2985 18.0996ZM18.6464 18.8674C19.0071 19.1699 19.1118 19.5306 18.9256 19.7749C18.8209 19.9145 18.6464 19.9843 18.4486 19.9843C18.2508 19.9843 18.0414 19.9145 17.9018 19.7865C17.5761 19.5073 17.483 19.042 17.6924 18.786C17.7738 18.6813 17.9134 18.6231 18.0647 18.6231C18.2625 18.6348 18.4719 18.7162 18.6464 18.8674ZM18.0531 21.776C19.5888 21.776 21.2525 22.2995 23.0907 23.94C23.2768 24.1028 23.5211 23.9051 23.3583 23.6956C21.5433 21.4037 19.868 20.9732 18.2043 20.6009C16.1683 20.1472 15.1096 19.0071 14.3766 17.7389C14.2254 17.483 14.1672 17.5295 14.1556 17.8553C14.144 18.2508 14.1672 18.7744 14.2603 19.2863C14.1789 19.2863 14.0974 19.2863 14.016 19.2863C11.0958 19.2863 8.72241 16.9129 8.72241 13.9927C8.72241 11.0725 11.0958 8.69914 14.016 8.69914C16.9362 8.69914 19.3096 11.0725 19.3096 13.9927C19.3096 14.2021 19.2979 14.4115 19.2747 14.6093C18.8907 14.5395 18.1229 14.5279 17.5877 14.5744C17.3899 14.5861 17.4132 14.6908 17.5644 14.714C19.3096 15.0282 20.5195 16.1101 20.7871 18.0879C20.7987 18.1345 20.8569 18.1461 20.8802 18.1112C21.6015 16.9129 22.0087 15.5052 22.0087 14.0043C22.0087 9.58334 18.4254 6 14.0043 6C9.58334 6 6 9.5717 6 13.9927C6 18.4137 9.58334 21.997 14.0043 21.997C15.1794 22.0087 16.3428 21.776 18.0531 21.776Z" fill="#FF8C00"/>
</svg>
