<svg width="175" height="40" viewBox="0 0 175 40" fill="none" xmlns="http://www.w3.org/2000/svg">
<g clip-path="url(#clip0)">
<path opacity="0.75" d="M0 0V26H25.6131L0 0Z" fill="#1565C0"/>
<path d="M26.5982 0H0V26L26.5982 0Z" fill="#1976D2"/>
<path d="M123.163 5.39072C119.205 5.39072 115.729 8.6455 115.729 12.6631V21.5566H118.917V18.3209H127.409V21.5566H130.596V12.6631C130.596 8.6455 127.121 5.39072 123.163 5.39072ZM127.409 15.0915H118.917V12.6695C118.917 10.4382 120.965 8.62643 123.163 8.62643C125.361 8.62643 127.409 10.4382 127.409 12.6695V15.0915Z" fill="#FF5722"/>
<path d="M167.225 5.39072C163.268 5.39072 159.792 8.6455 159.792 12.6631V21.5566H162.98V18.3209H171.471V21.5566H174.659V12.6631C174.659 8.6455 171.183 5.39072 167.225 5.39072ZM171.471 15.0915H162.98V12.6695C162.98 10.4382 165.027 8.62643 167.225 8.62643C169.424 8.62643 171.471 10.4382 171.471 12.6695V15.0915Z" fill="#FF5722"/>
<path d="M90.7802 5.39072C86.384 5.39072 82.8145 9.00785 82.8145 13.4768C82.8145 17.9394 86.3778 21.5629 90.7802 21.5629C95.1765 21.5629 98.746 17.9458 98.746 13.4768C98.746 9.00785 95.1765 5.39072 90.7802 5.39072ZM90.7802 18.3209C88.1438 18.3209 86.002 16.1468 86.002 13.4705C86.002 10.7942 88.1438 8.62008 90.7802 8.62008C93.4167 8.62008 95.5585 10.7942 95.5585 13.4705C95.5585 16.1531 93.4167 18.3209 90.7802 18.3209Z" fill="#1976D2"/>
<path d="M79.4382 12.6186C79.8328 11.913 80.0582 11.1057 80.0582 10.2348C80.0582 7.55847 77.9165 5.38437 75.28 5.38437H69.0176V21.5502H76.8769C79.5134 21.5502 81.6551 19.3761 81.6551 16.6998C81.6489 14.9898 80.7659 13.4832 79.4382 12.6186ZM72.1989 8.62009H75.28C76.1567 8.62009 76.8707 9.34478 76.8707 10.2348C76.8707 11.1247 76.1567 11.8494 75.28 11.8494H72.1989V8.62009ZM76.8707 18.3209H72.1989V15.0852H76.8707C77.7474 15.0852 78.4613 15.8099 78.4613 16.6998C78.4613 17.5898 77.7474 18.3209 76.8707 18.3209Z" fill="#1976D2"/>
<path d="M59.1924 5.39072C54.7961 5.39072 51.2266 9.00785 51.2266 13.4768C51.2266 17.9394 54.7899 21.5629 59.1924 21.5629C63.5948 21.5629 67.1582 17.9458 67.1582 13.4768C67.1582 9.00785 63.5886 5.39072 59.1924 5.39072ZM59.1924 18.3209C56.5559 18.3209 54.4141 16.1468 54.4141 13.4705C54.4141 10.7942 56.5559 8.62008 59.1924 8.62008C61.8288 8.62008 63.9706 10.7942 63.9706 13.4705C63.9706 16.1531 61.8288 18.3209 59.1924 18.3209Z" fill="#1976D2"/>
<path d="M140.667 11.8876L140.686 11.8558H136.972C136.095 11.8558 135.381 11.1311 135.381 10.2411C135.381 9.35113 136.095 8.62643 136.972 8.62643H142.809L144.932 5.39072H136.966C134.329 5.39072 132.188 7.56481 132.188 10.2411C132.188 12.7458 134.054 14.8054 136.452 15.0597L136.433 15.0915H140.147C141.024 15.0915 141.738 15.8162 141.738 16.7062C141.738 17.5962 141.024 18.3209 140.147 18.3209H134.31L132.188 21.5566H140.153C142.79 21.5566 144.932 19.3825 144.932 16.7062C144.932 14.2015 143.059 12.1419 140.667 11.8876Z" fill="#FF5722"/>
<path d="M150.235 5.39072C147.599 5.39072 145.457 7.56481 145.457 10.2411C145.457 12.7458 147.323 14.8054 149.722 15.0597L149.703 15.0915H153.417C154.293 15.0915 155.007 15.8162 155.007 16.7062C155.007 17.5962 154.293 18.3209 153.417 18.3209H147.58L145.457 21.5566H153.423C156.059 21.5566 158.201 19.3825 158.201 16.7062C158.201 14.2015 156.335 12.1419 153.936 11.8876L153.955 11.8558H150.242C149.365 11.8558 148.651 11.1311 148.651 10.2411C148.651 9.35113 149.365 8.62643 150.242 8.62643H156.078L158.201 5.39072H150.235Z" fill="#FF5722"/>
<path d="M113.976 5.39072L107.463 12.4279L114.139 21.5502H110.426L105.347 14.7101L104.057 16.2739V21.5439H100.869V5.39072H104.057V11.7668L109.799 5.39072H113.976Z" fill="#FF5722"/>
<path d="M40.3487 21.5566H37.1611V5.39072H44.6635C46.0037 5.39072 47.1559 5.85478 48.1266 6.78926C49.1161 7.73645 49.8864 9.12864 49.9051 10.5081C49.9177 11.7604 49.6233 12.7776 48.8405 13.7438C48.0953 14.6783 47.3376 15.3839 46.1853 15.6319L50.1682 21.5566H46.4546L42.7096 15.9624C42.5593 15.7526 42.3214 15.6319 42.0646 15.6319H40.3487V21.5566ZM40.3487 12.6631H44.5946C45.7657 12.6631 46.7176 11.6969 46.7176 10.5081C46.7176 9.31935 45.7657 8.35308 44.5946 8.35308H40.3487V12.6631Z" fill="#1976D2"/>
</g>
<path fill-rule="evenodd" clip-rule="evenodd" d="M121.501 40C121.09 40 120.738 39.6538 120.738 39.2498V34.5176C120.738 32.5555 122.439 30.9396 124.434 30.9396C126.487 30.9396 128.129 32.5555 128.129 34.5176C128.129 36.4797 126.428 38.0956 124.434 38.0956C123.73 38.0956 123.085 37.9225 122.439 37.5762L122.263 37.4608V39.1921C122.263 39.6538 121.911 40 121.501 40ZM124.375 32.3823C123.202 32.3823 122.146 33.3634 122.146 34.5176C122.146 35.6718 123.143 36.6528 124.375 36.6528C125.548 36.6528 126.604 35.6718 126.604 34.5176C126.604 33.3634 125.548 32.3823 124.375 32.3823Z" fill="#508CD0" fill-opacity="0.9"/>
<path d="M139.626 39.8845C139.215 39.8845 138.863 39.5383 138.863 39.1343V36.7682L136.165 32.5554C136.048 32.3823 136.048 32.2091 136.048 31.9783C136.107 31.8052 136.224 31.632 136.4 31.5166C136.517 31.4589 136.634 31.4012 136.81 31.4012C137.104 31.4012 137.338 31.5166 137.456 31.7474L139.626 35.0946L141.796 31.7474C141.914 31.5166 142.207 31.4012 142.442 31.4012C142.559 31.4012 142.735 31.4589 142.852 31.5166C143.028 31.632 143.146 31.8052 143.204 31.9783C143.263 32.1514 143.204 32.3823 143.087 32.5554L140.389 36.7105V39.0766C140.389 39.5383 140.095 39.8845 139.626 39.8845Z" fill="#508CD0" fill-opacity="0.9"/>
<path d="M134.816 39.4229C134.933 39.7114 135.227 39.8845 135.52 39.8845C135.579 39.8845 135.696 39.8845 135.813 39.8268C136.224 39.6537 136.4 39.2497 136.224 38.8458L133.056 31.8629C132.939 31.6897 132.822 31.5166 132.646 31.4589C132.587 31.4012 132.47 31.4012 132.353 31.4012C132.059 31.4012 131.766 31.5743 131.649 31.8629L128.481 38.8458C128.305 39.192 128.481 39.6537 128.892 39.8268C128.95 39.8845 129.068 39.8845 129.185 39.8845C129.478 39.8845 129.772 39.7114 129.889 39.4229L132.353 33.9981L134.816 39.4229Z" fill="#508CD0" fill-opacity="0.9"/>
<path d="M147.018 39.9422C146.079 39.9422 145.082 39.596 144.554 39.0766C144.378 38.9612 144.319 38.7303 144.319 38.5572C144.319 38.3264 144.378 38.1532 144.554 38.0378C144.73 37.8647 144.906 37.807 145.141 37.807C145.317 37.807 145.551 37.8647 145.669 38.0378C145.962 38.3264 146.548 38.4995 147.018 38.4995C147.839 38.4995 148.308 38.0955 148.308 37.4607C148.308 36.6528 147.546 36.4219 146.666 36.1911C145.551 35.9026 144.261 35.4986 144.261 33.7673C144.261 32.44 145.434 31.4012 146.959 31.4012C148.074 31.4012 149.247 31.8052 149.247 32.5554C149.247 32.9593 148.895 33.2479 148.543 33.2479C148.426 33.2479 148.25 33.1902 148.015 33.0748C147.722 32.9593 147.37 32.8439 146.959 32.8439H146.783C146.196 32.9016 145.903 33.2479 145.903 33.7673C145.903 34.4598 146.666 34.6906 147.546 34.9215H147.604C148.777 35.2677 150.068 35.614 150.068 37.3453C149.951 38.788 148.601 39.9422 147.018 39.9422Z" fill="#508CD0" fill-opacity="0.9"/>
<path fill-rule="evenodd" clip-rule="evenodd" d="M167.666 39.1344C167.666 39.5384 167.959 39.8269 168.37 39.8269H170.247C172.652 39.8269 174.588 37.9225 174.588 35.6718C174.588 33.4211 172.652 31.5167 170.247 31.5167H168.37C167.959 31.5167 167.666 31.8052 167.666 32.2092V39.1344ZM170.247 38.4419H169.25V32.844H170.306C171.772 32.844 172.945 34.0559 172.945 35.6141C172.945 37.1723 171.772 38.4419 170.247 38.4419Z" fill="#508CD0" fill-opacity="0.9"/>
<path d="M152.356 39.8268C151.946 39.7691 151.652 39.4806 151.652 39.0766V32.2091C151.652 31.8052 152.004 31.4589 152.415 31.4589H155.993C156.404 31.4589 156.697 31.7474 156.697 32.1514C156.697 32.5554 156.404 32.8439 155.993 32.8439H153.177V34.6329H155.758C156.169 34.6329 156.462 34.9215 156.462 35.3255C156.462 35.7294 156.169 36.018 155.758 36.018H153.177V38.4418H155.993C156.404 38.4418 156.697 38.7303 156.697 39.1343C156.697 39.5383 156.404 39.8268 155.993 39.8268H152.356Z" fill="#508CD0" fill-opacity="0.9"/>
<path d="M164.088 39.5383C164.205 39.7691 164.499 39.8845 164.733 39.8845C165.144 39.8845 165.496 39.5383 165.496 39.1343V32.1514C165.496 31.7474 165.144 31.4012 164.733 31.4012C164.323 31.4012 163.971 31.7474 163.971 32.1514V37.0567L163.736 36.7682C162.504 35.0369 160.041 31.7474 159.982 31.6897C159.865 31.5166 159.63 31.4012 159.395 31.4012C158.985 31.4012 158.633 31.7474 158.633 32.1514V39.1343C158.633 39.5383 158.985 39.8845 159.395 39.8845C159.806 39.8845 160.158 39.5383 160.158 39.1343V34.229L164.088 39.5383Z" fill="#508CD0" fill-opacity="0.9"/>
<path d="M39.7315 39.9432C38.793 39.9432 37.7958 39.5969 37.2678 39.0775C37.0919 38.9621 37.0332 38.7313 37.0332 38.5582C37.0332 38.3273 37.0919 38.1542 37.2678 38.0388C37.4438 37.8656 37.6198 37.8079 37.8544 37.8079C38.0304 37.8079 38.265 37.8656 38.3823 38.0388C38.6756 38.3273 39.2622 38.5004 39.7315 38.5004C40.5527 38.5004 41.022 38.0965 41.022 37.4617C41.022 36.6537 40.2594 36.4229 39.3795 36.192C38.3237 35.9035 37.0919 35.4418 37.0919 33.7105C37.0919 32.3832 38.265 31.3444 39.7901 31.3444C40.9047 31.3444 42.0778 31.7484 42.0778 32.4986C42.0778 32.9026 41.7259 33.1911 41.3739 33.1911C41.2566 33.1911 41.0806 33.1334 40.846 33.018C40.4941 32.9026 40.1421 32.7872 39.7315 32.7872H39.5555C38.9689 32.8449 38.6756 33.1911 38.6756 33.7105C38.6756 34.403 39.4382 34.6339 40.3181 34.8647H40.3767C41.5499 35.211 42.8404 35.5572 42.8404 37.2885C42.6644 38.789 41.3739 39.9432 39.7315 39.9432Z" fill="#508CD0" fill-opacity="0.9"/>
<path d="M52.5771 39.8269C52.3424 39.8269 52.1665 39.7692 51.9905 39.5961C51.8145 39.4229 51.7559 39.2498 51.7559 39.019V32.3246C51.7559 32.0938 51.8145 31.9207 51.9905 31.7475C52.1665 31.5744 52.3424 31.5167 52.5771 31.5167H55.6273C55.9793 31.5167 56.3899 31.5744 56.6832 31.7475C57.0351 31.863 57.3284 32.0938 57.563 32.3246C57.7977 32.5555 58.0323 32.844 58.1496 33.1903C58.3256 33.5365 58.3843 33.8828 58.3843 34.2291C58.3843 34.7484 58.2669 35.2101 57.9736 35.6718C57.6804 36.0758 57.3284 36.422 56.9178 36.6529L58.091 38.7881C58.1496 38.9036 58.2083 39.019 58.2083 39.1344C58.2083 39.3075 58.1496 39.4806 57.9736 39.6538C57.8563 39.8269 57.6217 39.8846 57.4457 39.8846C57.3284 39.8846 57.1524 39.8269 57.0351 39.7692C56.9178 39.7115 56.8005 39.5961 56.7418 39.4806L55.334 36.9414H53.457V39.019C53.457 39.2498 53.3983 39.4229 53.2223 39.5961C53.0463 39.7692 52.8117 39.8269 52.5771 39.8269ZM53.457 32.844V35.5564H55.51C55.686 35.5564 55.9206 35.4987 56.0966 35.441C56.2726 35.3833 56.3899 35.2678 56.5072 35.1524C56.6245 35.037 56.7418 34.8639 56.8005 34.7484C56.8591 34.5753 56.9178 34.4022 56.9178 34.2291C56.9178 34.0559 56.8591 33.8828 56.8005 33.7097C56.7418 33.5365 56.6245 33.4211 56.5072 33.248C56.3899 33.1326 56.2139 33.0171 56.0966 32.9594C55.9206 32.9017 55.7446 32.844 55.5687 32.844H53.457Z" fill="#508CD0" fill-opacity="0.9"/>
<path d="M63.0185 39.8268C62.7838 39.8268 62.5492 39.7691 62.3146 39.596C62.1386 39.4228 61.9626 39.2497 61.904 39.0189L59.6163 32.3245C59.6163 32.2668 59.5576 32.1514 59.5576 32.0937C59.5576 31.8628 59.6163 31.6897 59.7922 31.5743C59.9682 31.4012 60.1442 31.3434 60.3788 31.3434C60.5548 31.3434 60.7308 31.4012 60.8481 31.5166C61.0241 31.5166 61.0827 31.632 61.1414 31.8051L62.9598 37.5761L64.7782 31.8051C64.8369 31.632 64.9542 31.5166 65.0715 31.4012C65.1888 31.2857 65.3648 31.228 65.5408 31.228C65.7754 31.228 65.9514 31.2857 66.1274 31.4589C66.3033 31.6897 66.362 31.8628 66.362 32.036C66.362 32.0937 66.362 32.2091 66.3033 32.2668L64.0743 39.0189C64.0157 39.2497 63.8397 39.4228 63.6637 39.596C63.4877 39.7691 63.2531 39.8268 63.0185 39.8268Z" fill="#508CD0" fill-opacity="0.9"/>
<path d="M68.9433 39.8269C68.7087 39.8269 68.5327 39.7692 68.3567 39.596C68.1807 39.4229 68.1221 39.2498 68.1221 39.0189V32.0938C68.1221 31.8629 68.1807 31.6898 68.3567 31.5167C68.5327 31.3435 68.7087 31.2858 68.9433 31.2858C69.1779 31.2858 69.3539 31.3435 69.5299 31.5167C69.7058 31.6898 69.7645 31.8629 69.7645 32.0938V39.0189C69.7645 39.2498 69.7058 39.4229 69.5299 39.596C69.4126 39.7692 69.1779 39.8269 68.9433 39.8269Z" fill="#508CD0" fill-opacity="0.9"/>
<path d="M77.9183 37.5185C78.0942 37.5185 78.2702 37.5762 78.4462 37.7493C78.6222 37.8647 78.6808 38.0379 78.6808 38.2687C78.6808 38.3841 78.6808 38.4418 78.6222 38.5573C78.5635 38.6727 78.5048 38.7304 78.4462 38.7881C78.0942 39.1344 77.6836 39.4229 77.2144 39.596C76.7451 39.7692 76.2172 39.8846 75.6892 39.8846C75.1026 39.8846 74.5747 39.7692 74.0468 39.5383C73.5189 39.3075 73.1083 39.0189 72.6976 38.615C72.3457 38.211 71.9937 37.7493 71.8178 37.2299C71.5831 36.7106 71.4658 36.1335 71.4658 35.4986C71.4658 34.9215 71.5831 34.3444 71.8178 33.8251C72.0524 33.3057 72.3457 32.844 72.6976 32.4977C73.0496 32.0938 73.4602 31.8052 73.9881 31.6321C74.5161 31.4012 75.044 31.2858 75.6306 31.2858C76.1585 31.2858 76.6278 31.3435 77.0384 31.5167C77.449 31.6898 77.8596 31.9206 78.2115 32.2092C78.3875 32.3823 78.4462 32.5554 78.4462 32.7286C78.4462 32.9017 78.3875 33.0748 78.2702 33.1903C78.1529 33.3634 77.9769 33.4211 77.7423 33.4211C77.5663 33.4211 77.3903 33.3634 77.273 33.248C76.8624 32.844 76.2758 32.6709 75.6306 32.6709C75.2786 32.6709 74.9267 32.7286 74.6334 32.9017C74.2814 33.0748 74.0468 33.248 73.8122 33.4788C73.5775 33.7096 73.4016 34.0559 73.2256 34.4022C73.1083 34.7484 72.9909 35.1524 72.9909 35.5564C72.9909 35.9603 73.0496 36.3643 73.2256 36.7106C73.3429 37.0568 73.5775 37.4031 73.8122 37.6339C74.0468 37.8647 74.3401 38.0956 74.6334 38.2687C74.9267 38.4418 75.2786 38.4996 75.6306 38.4996C75.9825 38.4996 76.2758 38.4418 76.5691 38.2687C76.8624 38.1533 77.097 37.9225 77.3317 37.6916C77.3903 37.6339 77.5076 37.5762 77.5663 37.5185C77.7423 37.5185 77.8596 37.5185 77.9183 37.5185Z" fill="#508CD0" fill-opacity="0.9"/>
<path d="M82.0829 38.2687H85.6024C85.7783 38.2687 85.9543 38.3265 86.0716 38.4419C86.1889 38.5573 86.2476 38.7304 86.2476 38.9036C86.2476 39.0767 86.1889 39.2498 86.0716 39.3652C85.9543 39.4807 85.7783 39.5384 85.6024 39.5384H81.2616C81.027 39.5384 80.851 39.4807 80.6751 39.3075C80.4991 39.1344 80.4404 38.9613 80.4404 38.7304V32.3246C80.4404 32.0938 80.4991 31.9207 80.6751 31.7475C80.851 31.5744 81.027 31.5167 81.2616 31.5167H85.6024C85.7783 31.5167 85.9543 31.5744 86.0716 31.6898C86.1889 31.8052 86.3063 31.9784 86.3063 32.1515C86.3063 32.3246 86.2476 32.4978 86.1303 32.6132C86.013 32.7286 85.837 32.7863 85.661 32.7863H82.1415V34.6907H84.7811C84.9571 34.6907 85.1331 34.7484 85.2504 34.8639C85.3677 34.9793 85.4264 35.1524 85.4264 35.3255C85.4264 35.4987 85.3677 35.6718 85.2504 35.7872C85.1331 36.0181 84.9571 36.1335 84.7225 36.1335H82.0829V38.2687Z" fill="#508CD0" fill-opacity="0.9"/>
<path d="M101.792 39.6537C101.557 39.6537 101.381 39.596 101.205 39.4229C101.029 39.2497 100.971 39.0766 100.971 38.8458V32.2668C100.971 32.036 101.029 31.8629 101.205 31.6897C101.381 31.5166 101.557 31.4589 101.792 31.4589H104.725C105.018 31.4589 105.311 31.5166 105.546 31.632C105.781 31.7474 106.015 31.8629 106.191 32.0937C106.367 32.2668 106.543 32.4977 106.661 32.7285C106.778 32.9593 106.837 33.2479 106.837 33.5364C106.837 33.7673 106.778 33.9404 106.719 34.1713C106.661 34.3444 106.543 34.5752 106.485 34.6906C106.837 34.9215 107.13 35.2677 107.364 35.6717C107.599 36.0757 107.658 36.4796 107.658 36.999C107.658 37.403 107.599 37.7493 107.423 38.0378C107.247 38.3841 107.071 38.6726 106.837 38.9035C106.602 39.1343 106.309 39.3651 105.957 39.4806C105.605 39.596 105.253 39.7114 104.901 39.7114H101.792V39.6537ZM102.672 34.229H104.608C104.783 34.229 104.959 34.1713 105.077 33.9981C105.194 33.825 105.253 33.7096 105.253 33.4787C105.253 33.3056 105.194 33.1325 105.077 33.0171C104.959 32.9016 104.783 32.8439 104.608 32.8439H102.672V34.229ZM102.672 35.4986V38.2687H104.783C104.959 38.2687 105.135 38.2109 105.311 38.1532C105.487 38.0955 105.605 37.9801 105.722 37.8647C105.839 37.7493 105.957 37.5761 106.015 37.403C106.074 37.2299 106.133 37.0567 106.133 36.8836C106.133 36.7105 106.074 36.5374 106.015 36.3642C105.957 36.1911 105.839 36.0757 105.722 35.9026C105.605 35.7871 105.429 35.6717 105.311 35.614C105.135 35.5563 104.959 35.4986 104.783 35.4986H102.672Z" fill="#508CD0" fill-opacity="0.9"/>
<path fill-rule="evenodd" clip-rule="evenodd" d="M88.0654 39.1344C88.0654 39.5384 88.3587 39.8269 88.7693 39.8269H90.6464C93.0514 39.8269 94.9871 37.9225 94.9871 35.6718C94.9871 33.4211 93.0514 31.5167 90.6464 31.5167H88.7693C88.3587 31.5167 88.0654 31.8052 88.0654 32.2092V39.1344ZM90.6464 38.4419H89.6492V32.844H90.7051C92.1715 32.844 93.3447 34.0559 93.3447 35.6141C93.3447 37.1723 92.1129 38.4419 90.6464 38.4419Z" fill="#508CD0" fill-opacity="0.9"/>
<path d="M45.2459 39.8268C44.8353 39.7691 44.542 39.4806 44.542 39.0766V32.2091C44.542 31.8052 44.8939 31.4589 45.3046 31.4589H48.8827C49.2933 31.4589 49.5866 31.7474 49.5866 32.1514C49.5866 32.5554 49.2933 32.8439 48.8827 32.8439H46.0671V34.6329H48.6481C49.0587 34.6329 49.352 34.9215 49.352 35.3255C49.352 35.7294 49.0587 36.018 48.6481 36.018H46.0671V38.4418H48.8827C49.2933 38.4418 49.5866 38.7303 49.5866 39.1343C49.5866 39.5383 49.2933 39.8268 48.8827 39.8268H45.2459Z" fill="#508CD0" fill-opacity="0.9"/>
<path d="M111.822 39.8845C111.412 39.8845 111.06 39.5383 111.06 39.1343V36.7682L108.361 32.6131C108.244 32.44 108.244 32.2668 108.244 32.036C108.303 31.8629 108.42 31.6897 108.596 31.5743C108.713 31.5166 108.831 31.4589 109.007 31.4589C109.3 31.4589 109.535 31.5743 109.652 31.8052L111.822 35.1523L113.993 31.8052C114.11 31.5743 114.403 31.4589 114.638 31.4589C114.755 31.4589 114.931 31.5166 115.049 31.5743C115.225 31.6897 115.342 31.8629 115.4 32.036C115.459 32.2091 115.4 32.44 115.283 32.6131L112.585 36.7682V39.1343C112.585 39.5383 112.292 39.8845 111.822 39.8845Z" fill="#508CD0" fill-opacity="0.9"/>
<defs>
<clipPath id="clip0">
<rect width="174.659" height="26.9474" fill="white"/>
</clipPath>
</defs>
</svg>
